<?xml version="1.0" encoding="UTF-8"?>
<svg xmlns="http://www.w3.org/2000/svg" id="Layer_1" data-name="Layer 1" viewBox="0 0 24 24" width="512" height="512"><path d="M12,4.5C12,2.02,9.98,0,7.5,0S3,2.02,3,4.5v2c0,2.48,2.02,4.5,4.5,4.5s4.5-2.02,4.5-4.5v-2Zm-3,2c0,.83-.67,1.5-1.5,1.5s-1.5-.67-1.5-1.5v-2c0-.83,.67-1.5,1.5-1.5s1.5,.67,1.5,1.5v2Zm6.5,6.5c-2.48,0-4.5,2.02-4.5,4.5v2c0,2.48,2.02,4.5,4.5,4.5s4.5-2.02,4.5-4.5v-2c0-2.48-2.02-4.5-4.5-4.5Zm1.5,6.5c0,.83-.67,1.5-1.5,1.5s-1.5-.67-1.5-1.5v-2c0-.83,.67-1.5,1.5-1.5s1.5,.67,1.5,1.5v2Zm-2.56-14.94c-.59-.59-.59-1.54,0-2.12L16.44,.44c.43-.43,1.08-.56,1.63-.33,.56,.23,.93,.78,.93,1.39V9.5c0,.83-.67,1.5-1.5,1.5s-1.5-.67-1.5-1.5V4.91c-.53,.19-1.14,.07-1.56-.35Zm-5.44,9.94v8c0,.83-.67,1.5-1.5,1.5s-1.5-.67-1.5-1.5v-4.59c-.53,.19-1.14,.07-1.56-.35-.59-.59-.59-1.54,0-2.12l2-2c.43-.43,1.08-.56,1.63-.33,.56,.23,.93,.78,.93,1.39Z"/></svg>
